<svg xmlns="http://www.w3.org/2000/svg">
  <symbol id="acorn" viewBox="0 0 160 160"><rect width="160" height="160" rx="28" fill="#FFEDD5"/><path d="M58 78Q58 58 80 58Q102 58 102 78V100Q102 118 80 118Q58 118 58 100Z" fill="#92400E"/><path d="M56 78Q80 58 104 78" fill="#C08457"/><path d="M80 52Q76 42 86 36" fill="none" stroke="#16A34A" stroke-width="6" stroke-linecap="round"/><text x="80" y="134" text-anchor="middle" font-size="13" font-family="sans-serif" fill="#4B5563">acorn</text></symbol>
  <symbol id="cloud" viewBox="0 0 160 160"><rect width="160" height="160" rx="28" fill="#DBEAFE"/><path d="M52 96Q42 76 60 68Q64 52 82 52Q98 52 104 66Q120 66 122 84Q122 102 102 102H60Q50 102 52 96Z" fill="#FFFFFF"/><text x="80" y="134" text-anchor="middle" font-size="13" font-family="sans-serif" fill="#4B5563">cloud</text></symbol>
  <symbol id="flower" viewBox="0 0 160 160"><rect width="160" height="160" rx="28" fill="#FCE7F3"/><circle cx="80" cy="84" r="12" fill="#FACC15"/><circle cx="80" cy="60" r="16" fill="#F472B6"/><circle cx="58" cy="76" r="16" fill="#FB7185"/><circle cx="102" cy="76" r="16" fill="#F472B6"/><circle cx="66" cy="102" r="16" fill="#FB7185"/><circle cx="94" cy="102" r="16" fill="#F472B6"/><path d="M80 96V120" stroke="#16A34A" stroke-width="6" stroke-linecap="round"/><text x="80" y="134" text-anchor="middle" font-size="13" font-family="sans-serif" fill="#4B5563">flower</text></symbol>
  <symbol id="forest" viewBox="0 0 160 160"><rect width="160" height="160" rx="28" fill="#DCFCE7"/><path d="M58 86L72 58L86 86Z" fill="#22C55E"/><path d="M80 98L96 66L112 98Z" fill="#16A34A"/><path d="M46 98L58 74L70 98Z" fill="#4ADE80"/><rect x="68" y="86" width="8" height="24" fill="#92400E"/><rect x="92" y="98" width="8" height="18" fill="#92400E"/><text x="80" y="134" text-anchor="middle" font-size="13" font-family="sans-serif" fill="#4B5563">forest</text></symbol>
  <symbol id="hill" viewBox="0 0 160 160"><rect width="160" height="160" rx="28" fill="#DBEAFE"/><circle cx="112" cy="48" r="14" fill="#FACC15"/><path d="M24 110Q54 72 80 96Q100 62 136 110Z" fill="#86EFAC"/><path d="M24 110H136V124H24Z" fill="#4ADE80"/><text x="80" y="134" text-anchor="middle" font-size="13" font-family="sans-serif" fill="#4B5563">hill</text></symbol>
  <symbol id="leaf" viewBox="0 0 160 160"><rect width="160" height="160" rx="28" fill="#DCFCE7"/><path d="M48 98Q48 54 104 50Q110 106 68 112Q54 112 48 98Z" fill="#22C55E"/><path d="M60 104Q76 82 100 60" fill="none" stroke="#15803D" stroke-width="5" stroke-linecap="round"/><text x="80" y="134" text-anchor="middle" font-size="13" font-family="sans-serif" fill="#4B5563">leaf</text></symbol>
  <symbol id="moon" viewBox="0 0 160 160"><rect width="160" height="160" rx="28" fill="#1E3A8A"/><path d="M96 46Q64 58 64 92Q64 112 78 122Q46 116 40 84Q40 52 72 42Q86 38 96 46Z" fill="#FDE68A"/><circle cx="108" cy="62" r="4" fill="#FFFFFF"/><circle cx="52" cy="52" r="3" fill="#FFFFFF"/><text x="80" y="134" text-anchor="middle" font-size="13" font-family="sans-serif" fill="#DBEAFE">moon</text></symbol>
  <symbol id="mountain" viewBox="0 0 160 160"><rect width="160" height="160" rx="28" fill="#DBEAFE"/><path d="M34 110L72 58L112 110Z" fill="#64748B"/><path d="M70 68L80 56L90 68L82 84H78Z" fill="#FFFFFF"/><path d="M76 110L104 72L130 110Z" fill="#94A3B8"/><text x="80" y="134" text-anchor="middle" font-size="13" font-family="sans-serif" fill="#4B5563">mountain</text></symbol>
  <symbol id="mushroom" viewBox="0 0 160 160"><rect width="160" height="160" rx="28" fill="#FEE2E2"/><path d="M48 82Q58 54 80 54Q102 54 112 82Z" fill="#EF4444"/><rect x="70" y="82" width="20" height="32" rx="8" fill="#FDE68A"/><circle cx="64" cy="72" r="5" fill="#FFFFFF"/><circle cx="80" cy="66" r="5" fill="#FFFFFF"/><circle cx="96" cy="72" r="5" fill="#FFFFFF"/><text x="80" y="134" text-anchor="middle" font-size="13" font-family="sans-serif" fill="#4B5563">mushroom</text></symbol>
  <symbol id="pond" viewBox="0 0 160 160"><rect width="160" height="160" rx="28" fill="#DCFCE7"/><ellipse cx="80" cy="96" rx="40" ry="20" fill="#60A5FA"/><ellipse cx="110" cy="88" rx="12" ry="6" fill="#22C55E"/><circle cx="52" cy="84" r="8" fill="#A3E635"/><text x="80" y="134" text-anchor="middle" font-size="13" font-family="sans-serif" fill="#4B5563">pond</text></symbol>
  <symbol id="rain" viewBox="0 0 160 160"><rect width="160" height="160" rx="28" fill="#DBEAFE"/><path d="M52 82Q44 64 62 58Q68 44 84 44Q102 44 108 60Q122 60 124 76Q124 90 110 92H62Q52 92 52 82Z" fill="#E5E7EB"/><path d="M62 98L56 112M80 98L74 112M98 98L92 112" stroke="#2563EB" stroke-width="6" stroke-linecap="round"/><text x="80" y="134" text-anchor="middle" font-size="13" font-family="sans-serif" fill="#4B5563">rain</text></symbol>
  <symbol id="rainbow" viewBox="0 0 160 160"><rect width="160" height="160" rx="28" fill="#DBEAFE"/><path d="M42 108Q80 42 118 108" fill="none" stroke="#EF4444" stroke-width="10"/><path d="M54 108Q80 58 106 108" fill="none" stroke="#F59E0B" stroke-width="10"/><path d="M66 108Q80 74 94 108" fill="none" stroke="#FACC15" stroke-width="10"/><path d="M74 108Q80 86 86 108" fill="none" stroke="#22C55E" stroke-width="10"/><text x="80" y="134" text-anchor="middle" font-size="13" font-family="sans-serif" fill="#4B5563">rainbow</text></symbol>
  <symbol id="river" viewBox="0 0 160 160"><rect width="160" height="160" rx="28" fill="#DCFCE7"/><path d="M104 38Q70 64 88 92Q98 110 76 126" fill="none" stroke="#3B82F6" stroke-width="18" stroke-linecap="round"/><path d="M104 38Q70 64 88 92Q98 110 76 126" fill="none" stroke="#BFDBFE" stroke-width="6" stroke-linecap="round"/><text x="80" y="134" text-anchor="middle" font-size="13" font-family="sans-serif" fill="#4B5563">river</text></symbol>
  <symbol id="rock" viewBox="0 0 160 160"><rect width="160" height="160" rx="28" fill="#E5E7EB"/><path d="M52 102L64 70L98 64L112 88L102 110L68 114Z" fill="#94A3B8"/><path d="M66 82L84 76L96 92L80 104Z" fill="#CBD5E1"/><text x="80" y="134" text-anchor="middle" font-size="13" font-family="sans-serif" fill="#4B5563">rock</text></symbol>
  <symbol id="seed" viewBox="0 0 160 160"><rect width="160" height="160" rx="28" fill="#FFEDD5"/><path d="M80 62Q56 70 56 94Q56 116 80 116Q104 116 104 94Q104 70 80 62Z" fill="#C08457"/><path d="M80 68Q74 92 82 112" fill="none" stroke="#92400E" stroke-width="4" stroke-linecap="round"/><text x="80" y="134" text-anchor="middle" font-size="13" font-family="sans-serif" fill="#4B5563">seed</text></symbol>
  <symbol id="shell" viewBox="0 0 160 160"><rect width="160" height="160" rx="28" fill="#FCE7F3"/><path d="M52 104Q52 62 80 62Q108 62 108 104Z" fill="#F9A8D4"/><path d="M60 104V70M72 104V64M84 104V64M96 104V70" stroke="#F472B6" stroke-width="4" stroke-linecap="round"/><text x="80" y="134" text-anchor="middle" font-size="13" font-family="sans-serif" fill="#4B5563">shell</text></symbol>
  <symbol id="snowflake" viewBox="0 0 160 160"><rect width="160" height="160" rx="28" fill="#DBEAFE"/><path d="M80 48V112M52 64L108 96M52 96L108 64" stroke="#FFFFFF" stroke-width="6" stroke-linecap="round"/><path d="M80 48L74 58M80 48L86 58M80 112L74 102M80 112L86 102M52 64L64 66M52 64L58 74M108 96L96 94M108 96L102 86M52 96L64 94M52 96L58 86M108 64L96 66M108 64L102 74" stroke="#BFDBFE" stroke-width="4" stroke-linecap="round"/><text x="80" y="134" text-anchor="middle" font-size="13" font-family="sans-serif" fill="#4B5563">snowflake</text></symbol>
  <symbol id="snowman" viewBox="0 0 160 160"><rect width="160" height="160" rx="28" fill="#DBEAFE"/><circle cx="80" cy="96" r="24" fill="#FFFFFF"/><circle cx="80" cy="64" r="18" fill="#FFFFFF"/><circle cx="74" cy="60" r="3" fill="#1F2937"/><circle cx="86" cy="60" r="3" fill="#1F2937"/><path d="M80 64L92 68L80 72Z" fill="#F97316"/><text x="80" y="134" text-anchor="middle" font-size="13" font-family="sans-serif" fill="#4B5563">snowman</text></symbol>
  <symbol id="star" viewBox="0 0 160 160"><rect width="160" height="160" rx="28" fill="#1E3A8A"/><path d="M80 44L90 70L118 72L96 90L104 118L80 102L56 118L64 90L42 72L70 70Z" fill="#FACC15"/><text x="80" y="134" text-anchor="middle" font-size="13" font-family="sans-serif" fill="#DBEAFE">star</text></symbol>
  <symbol id="sun" viewBox="0 0 160 160"><rect width="160" height="160" rx="28" fill="#DBEAFE"/><circle cx="80" cy="80" r="26" fill="#FACC15"/><path d="M80 38V52M80 108V122M38 80H52M108 80H122M52 52L62 62M98 98L108 108M52 108L62 98M98 62L108 52" stroke="#F59E0B" stroke-width="6" stroke-linecap="round"/><text x="80" y="134" text-anchor="middle" font-size="13" font-family="sans-serif" fill="#4B5563">sun</text></symbol>
  <symbol id="tree" viewBox="0 0 160 160"><rect width="160" height="160" rx="28" fill="#DCFCE7"/><circle cx="80" cy="72" r="28" fill="#22C55E"/><circle cx="60" cy="82" r="18" fill="#4ADE80"/><circle cx="100" cy="82" r="18" fill="#4ADE80"/><rect x="72" y="92" width="16" height="26" rx="6" fill="#92400E"/><text x="80" y="134" text-anchor="middle" font-size="13" font-family="sans-serif" fill="#4B5563">tree</text></symbol>
  <symbol id="tulip" viewBox="0 0 160 160"><rect width="160" height="160" rx="28" fill="#FCE7F3"/><path d="M80 56L94 78Q90 92 80 96Q70 92 66 78Z" fill="#EF4444"/><path d="M80 96V122" stroke="#16A34A" stroke-width="6" stroke-linecap="round"/><path d="M80 108Q70 98 60 106" fill="none" stroke="#22C55E" stroke-width="5" stroke-linecap="round"/><path d="M80 112Q90 102 100 110" fill="none" stroke="#22C55E" stroke-width="5" stroke-linecap="round"/><text x="80" y="134" text-anchor="middle" font-size="13" font-family="sans-serif" fill="#4B5563">tulip</text></symbol>
  <symbol id="volcano" viewBox="0 0 160 160"><rect width="160" height="160" rx="28" fill="#FEE2E2"/><path d="M48 110L72 70H88L112 110Z" fill="#7C2D12"/><path d="M70 70L76 54H84L90 70Z" fill="#B45309"/><path d="M76 54Q80 36 84 54Q96 44 92 64Q82 60 76 54Z" fill="#F97316"/><text x="80" y="134" text-anchor="middle" font-size="13" font-family="sans-serif" fill="#4B5563">volcano</text></symbol>
  <symbol id="wave" viewBox="0 0 160 160"><rect width="160" height="160" rx="28" fill="#DBEAFE"/><path d="M34 94Q50 74 66 94Q82 114 98 94Q114 74 126 94" fill="none" stroke="#3B82F6" stroke-width="12" stroke-linecap="round"/><path d="M44 108Q56 96 68 108Q80 120 92 108Q104 96 116 108" fill="none" stroke="#93C5FD" stroke-width="8" stroke-linecap="round"/><text x="80" y="134" text-anchor="middle" font-size="13" font-family="sans-serif" fill="#4B5563">wave</text></symbol>
  <symbol id="wind" viewBox="0 0 160 160"><rect width="160" height="160" rx="28" fill="#E0F2FE"/><path d="M42 70H102Q118 70 118 58Q118 46 104 46Q94 46 90 54" fill="none" stroke="#60A5FA" stroke-width="6" stroke-linecap="round"/><path d="M52 88H114Q126 88 126 100Q126 112 112 112Q102 112 98 104" fill="none" stroke="#93C5FD" stroke-width="6" stroke-linecap="round"/><text x="80" y="134" text-anchor="middle" font-size="13" font-family="sans-serif" fill="#4B5563">wind</text></symbol>
</svg>
